<svg class="svg-icon" style="width: 1em; height: 1em;vertical-align: middle;fill: currentColor;overflow: hidden;" viewBox="0 0 1024 1024" version="1.1" xmlns="http://www.w3.org/2000/svg"><path d="M339.040786 445.61608c9.621125 3.430122 20.572548 7.207146 32.194236 11.005658 27.659967 9.03784 86.077447 16.962324 151.682631 15.236006 65.605184 1.726318 124.021641-6.197142 151.682631-15.236006 11.621688-3.798513 22.572088-7.575536 32.193213-11.005658 61.242829-26.555819 78.376045-83.023902 40.99774-140.691299-31.787984-49.042973-79.535451-75.187423-134.24447-89.531106-30.761608-8.065699-61.004399-11.774161-90.62809-11.017938-29.623691-0.756223-59.866483 2.952238-90.62809 11.017938-54.710043 14.343683-102.45751 40.48711-134.245494 89.531106C260.666788 362.593202 277.79898 419.060261 339.040786 445.61608zM255.028371 425.445692c-39.473013-45.7643-29.630854-95.606475 2.765997-135.442762-149.461033-19.48682-183.54327-4.202719-189.123358 18.97005C64.47136 326.412165 81.925894 378.420679 255.028371 425.445692zM790.805914 425.445692c173.102477-47.025013 190.55701-99.033527 186.357362-116.472712-5.580089-23.172769-39.662325-38.45687-189.123358-18.97005C820.436768 329.839217 830.278927 379.681392 790.805914 425.445692zM976.638319 378.588501c-168.825057 97.90789-310.094524 143.520741-453.720665 138.666176-143.627165 4.854565-284.896632-40.758286-453.722712-138.666176-12.841469 0.193405-12.525268 10.767228-12.171204 11.916401 43.166125 140.411937 83.277682 245.441015 180.972724 356.455411 27.879977 31.68156 70.527286 59.846016 111.797225 74.026994 56.741305 19.495006 114.444519 29.092595 173.123966 29.342282 58.679447-0.249687 116.381637-9.846252 173.123966-29.342282 41.269939-14.180977 83.917248-42.345434 111.797225-74.026994 97.696066-111.014396 137.806599-216.043475 180.972724-356.455411C989.165634 389.354706 989.480812 378.781906 976.638319 378.588501z"  /></svg>